<?xml version="1.0" standalone="no"?>
<!DOCTYPE svg PUBLIC "-//W3C//DTD SVG 20010904//EN"
 "http://www.w3.org/TR/2001/REC-SVG-20010904/DTD/svg10.dtd">
<svg version="1.0" xmlns="http://www.w3.org/2000/svg"
 width="197.000000pt" height="197.000000pt" viewBox="0 0 197.000000 197.000000"
 preserveAspectRatio="xMidYMid meet">
<metadata>
Created by potrace 1.11, written by Peter Selinger 2001-2013
</metadata>
<g transform="translate(0.000000,197.000000) scale(0.100000,-0.100000)"
fill="#000000" stroke="none">
<path d="M787 1954 c-371 -80 -663 -358 -758 -721 -55 -211 -27 -486 68 -675
13 -27 21 -48 18 -48 -3 0 3 -10 15 -22 11 -12 20 -28 20 -35 0 -7 4 -13 8
-13 10 0 47 -62 44 -73 -1 -5 2 -6 8 -2 5 3 13 0 16 -8 5 -15 144 -158 144
-149 0 2 7 -1 15 -8 8 -7 12 -17 8 -23 -3 -6 -1 -7 5 -3 7 4 31 -6 54 -22 52
-36 130 -75 181 -91 20 -7 37 -16 37 -21 0 -4 9 -6 20 -3 12 3 20 0 20 -7 0
-7 8 -9 19 -5 11 3 26 -1 35 -10 12 -12 16 -13 16 -3 0 9 2 10 8 2 8 -14 381
-17 397 -4 16 13 66 20 60 9 -4 -5 -11 -6 -17 -3 -7 5 -8 2 -3 -6 6 -10 12 -8
27 9 10 13 18 20 18 16 0 -4 7 -2 15 5 8 6 19 9 25 5 5 -3 10 -1 10 6 0 7 3
10 6 7 3 -4 17 0 31 7 14 7 32 11 41 8 11 -5 13 -3 7 8 -4 8 -5 11 0 7 4 -4
14 -3 22 3 10 9 17 8 28 -1 20 -17 38 -1 24 20 -9 13 -10 12 -5 -2 3 -10 1
-18 -4 -18 -17 0 -20 18 -5 30 8 7 15 9 15 4 0 -5 4 -4 8 1 10 15 70 55 81 55
5 0 12 7 15 16 3 8 10 12 16 9 5 -3 10 -1 10 4 0 6 7 11 15 11 8 0 14 -5 13
-11 -2 -6 4 -14 12 -16 13 -4 13 -3 0 6 -8 6 -11 11 -6 11 5 0 2 8 -5 17 -10
11 -10 14 -1 9 7 -4 12 -1 12 8 0 9 4 16 9 16 6 0 8 -8 6 -18 -2 -13 2 -18 16
-17 10 1 21 4 24 8 3 4 2 5 -2 2 -3 -3 -12 4 -19 14 -12 17 -10 23 20 56 19
20 40 35 48 33 7 -2 15 2 17 7 2 6 12 22 22 37 22 31 26 51 4 22 -8 -10 -15
-14 -15 -8 0 5 8 19 18 30 11 11 17 30 16 41 -4 24 10 38 27 28 7 -5 4 -14 -7
-26 -9 -10 -14 -19 -9 -19 4 0 2 -7 -5 -15 -9 -11 -9 -15 -1 -15 7 0 9 -4 6
-10 -10 -16 1 -11 16 7 10 11 10 14 1 9 -8 -5 -11 -1 -9 11 5 34 16 43 42 33
13 -5 26 -6 29 -2 3 4 -5 9 -16 9 -33 3 -43 19 -30 45 12 22 12 22 7 1 -7 -28
9 -38 26 -15 12 15 12 16 -2 4 -14 -10 -16 -8 -15 18 1 16 4 30 9 30 4 0 6 3
6 8 -1 4 -1 14 0 22 1 11 4 11 13 2 15 -15 28 -15 28 -1 0 5 -4 8 -9 5 -5 -3
-12 1 -15 10 -9 25 -7 27 11 13 15 -13 15 -12 5 8 -9 16 -9 24 0 29 6 4 8 3 4
-4 -3 -6 -2 -13 3 -16 10 -7 9 13 -2 30 -8 14 1 24 18 18 7 -3 16 0 20 6 3 6
3 10 -2 9 -19 -3 -33 2 -33 12 0 6 7 9 15 6 8 -4 17 -1 21 5 4 7 3 8 -4 4 -12
-7 -17 8 -12 29 2 6 2 18 2 28 0 9 3 15 7 12 11 -6 8 355 -4 379 -6 15 -5 17
5 11 9 -5 8 0 -3 15 -10 15 -14 33 -10 48 4 17 2 23 -6 18 -6 -4 -11 -3 -11 3
0 5 -3 16 -6 25 -3 9 -1 16 6 16 6 0 9 -4 5 -9 -3 -5 -2 -12 3 -15 5 -3 9 2 9
11 0 9 -9 18 -19 21 -10 2 -18 9 -18 14 0 5 6 6 13 3 6 -4 5 -1 -3 7 -24 21
-62 98 -56 113 3 8 0 17 -6 21 -7 5 -8 2 -3 -6 5 -9 4 -11 -3 -6 -7 4 -12 13
-12 20 0 8 -7 19 -16 27 -8 7 -13 20 -11 29 2 10 -1 17 -7 16 -6 0 -12 4 -14
9 -2 6 -10 14 -18 18 -8 5 -11 13 -8 19 4 7 2 8 -4 4 -6 -4 -16 4 -23 16 -7
13 -18 27 -26 31 -7 5 -10 13 -7 19 4 6 3 8 -3 5 -6 -4 -31 16 -57 44 -25 27
-46 47 -46 43 0 -3 -7 -1 -15 6 -8 7 -12 17 -8 23 3 5 1 7 -5 4 -5 -4 -43 13
-82 37 -83 52 -203 98 -313 120 -95 20 -297 20 -390 0z m984 -1587 c-6 -8 -7
-18 -3 -22 4 -5 2 -5 -5 -1 -14 8 -6 36 9 36 7 0 6 -5 -1 -13z"/>
<path d="M1874 1449 c-3 -6 -2 -15 3 -20 5 -5 9 -1 9 11 0 23 -2 24 -12 9z"/>
<path d="M1893 560 c-1 -11 2 -22 6 -24 4 -3 7 4 8 14 1 11 -2 22 -6 24 -4 3
-7 -4 -8 -14z"/>
<path d="M1850 453 c0 -5 5 -15 10 -23 7 -12 9 -10 7 8 -1 19 -17 33 -17 15z"/>
<path d="M1802 370 c-15 -25 -15 -30 0 -30 6 0 8 3 5 7 -4 3 -2 12 5 20 6 7 9
15 7 18 -3 2 -10 -5 -17 -15z"/>
<path d="M1724 319 c-4 -8 -3 -10 4 -5 6 4 20 2 31 -4 11 -5 22 -6 25 -2 3 5
0 9 -7 9 -7 0 -19 4 -28 7 -10 4 -20 2 -25 -5z"/>
<path d="M1701 282 c-11 -11 -11 -16 -1 -25 10 -9 11 -9 6 0 -4 7 5 18 21 27
23 12 24 14 7 13 -11 0 -26 -7 -33 -15z"/>
<path d="M1734 256 c1 -8 5 -18 8 -22 4 -3 5 1 4 10 -1 8 -5 18 -8 22 -4 3 -5
-1 -4 -10z"/>
<path d="M1582 180 c-8 -13 -8 -20 -1 -20 5 0 7 -4 4 -10 -10 -16 1 -11 16 7
12 14 12 15 0 9 -10 -7 -12 -3 -6 13 8 26 3 27 -13 1z"/>
<path d="M1610 190 c0 -5 5 -10 11 -10 5 0 7 5 4 10 -3 6 -8 10 -11 10 -2 0
-4 -4 -4 -10z"/>
<path d="M1521 141 c-35 -28 -32 -45 4 -30 18 7 18 8 2 8 -15 1 -13 5 10 26
39 34 26 31 -16 -4z"/>
<path d="M1557 143 c-10 -9 -9 -23 1 -23 5 0 9 7 9 15 0 17 -1 18 -10 8z"/>
<path d="M546 72 c-3 -5 1 -9 9 -9 8 0 12 4 9 9 -3 4 -7 8 -9 8 -2 0 -6 -4 -9
-8z"/>
<path d="M1430 70 c0 -5 5 -10 10 -10 6 0 10 5 10 10 0 6 -4 10 -10 10 -5 0
-10 -4 -10 -10z"/>
<path d="M1373 55 c-3 -9 -3 -18 -1 -21 3 -3 8 4 11 16 6 23 -1 27 -10 5z"/>
<path d="M605 50 c3 -5 11 -10 16 -10 6 0 7 5 4 10 -3 6 -11 10 -16 10 -6 0
-7 -4 -4 -10z"/>
<path d="M1329 34 c-23 -25 -23 -26 -2 -13 13 7 25 19 27 26 8 19 2 16 -25
-13z"/>
<path d="M1395 51 c-3 -5 0 -13 6 -17 7 -4 9 -3 5 4 -3 5 0 13 6 15 9 4 10 6
1 6 -6 1 -14 -3 -18 -8z"/>
<path d="M1277 22 c-15 -16 -15 -19 -2 -19 8 0 13 3 10 5 -3 3 3 11 13 18 9 7
12 14 6 14 -6 0 -18 -8 -27 -18z"/>
<path d="M1346 8 c3 -5 10 -6 15 -3 13 9 11 12 -6 12 -8 0 -12 -4 -9 -9z"/>
</g>
</svg>
